<svg xmlns="http://www.w3.org/2000/svg" xmlns:xlink="http://www.w3.org/1999/xlink" version="1.1" x="0px" y="0px"
    width="100%" height="100%" viewBox="0 0 4096 4096" xml:space="preserve">
    <!-- ==== このファイル自体で全体を描画するための記述 ==== -->
    <use xlink:href="#all-normal"></use>

    <!-- ==== 追加機能 : フォント読み込み : 任意テキストをUbuntuで表示 ==== -->
    <defs>
        <style>
            <![CDATA[
            @import url('https://fonts.googleapis.com/css2?family=Ubuntu&display=swap');
            ]]>
            .a
            {}
        </style>
    </defs>
    <symbol viewbox="0 0 4096 4096" id="text-input">
        <path fill="#f440" opacity="1.000000" stroke="none" d="M 520 700 H 1480 V 860 H 520 z" />
        <text x="2048" y="1610" text-anchor="middle" dominant-baseline="middle" font-family="Ubuntu"
            font-size="400px">Ayasaka-Koto</text>
    </symbol>

    <!-- ==== useで全体を読み込めるようにするための記述 ==== -->
    <symbol viewbox="0 0 4096 4096" id="all-normal">
        <use xlink:href="#elements-normal" fill="#eef"></use>
    </symbol>
    <symbol viewbox="0 0 4096 4096" id="all-custom">
        <use xlink:href="#background" fill="#224"></use>
        <use xlink:href="#elements-custom" fill="#eef"></use>
    </symbol>
    <!-- ==== パーツ別で読み込めるようにするための記述 ==== -->
    <symbol viewBox="0 0 4096 4096" id="background">
        <rect x="0" y="0" width="4096" height="4096" rx="256" ry="256" />
    </symbol>
    <symbol viewbox="0 0 4096 4096" id="elements-normal">
        <use xlink:href="#text"></use>
        <use xlink:href="#nonverbal"></use>
    </symbol>
    <symbol viewbox="0 0 4096 4096" id="elements-custom">
        <use xlink:href="#text-input"></use>
        <use xlink:href="#nonverbal"></use>
    </symbol>
    <symbol viewbox="0 0 4096 4096" id="nonverbal">
        <use xlink:href="#frame"></use>
        <use xlink:href="#window"></use>
        <use xlink:href="#console"></use>
    </symbol>
    <symbol viewbox="0 0 4096 4096" id="frame">
        <polyline
            points="2041.47 117.37 116.35 2042.49 2041.47 3967.61 2041.47 3926.65 157.31 2042.49 2041.47 158.33 2041.47 117.37" />
        <polygon
            points="2041.9 116.48 3967.02 2041.6 2041.9 3966.72 2041.9 3925.76 3926.06 2041.6 2041.9 157.44 2041.9 116.48" />
        <rect x="1078.91" y="2025.08" width="1925.12" height="32.77" />
        <path
            d="M2041.11,410.23c4.51.03,36.12.73,57.43,26.83,15.62,19.13,16.33,40.41,16.3,46.89-.11,4.88-1.23,33.88-25.3,55.11-19.66,17.34-42.18,18.51-48.43,18.62-4.95-.09-32.41-1.04-53.57-23.62-19.03-20.31-20.07-44.37-20.16-50.11-.02-4.96.39-30.85,21.16-51.89,21.2-21.48,47.78-21.85,52.57-21.83Z" />
        <path
            d="M2041.47,3525.24c4.51.03,36.12.73,57.43,26.83,15.62,19.13,16.33,40.41,16.3,46.89-.11,4.88-1.23,33.88-25.3,55.11-19.66,17.34-42.18,18.51-48.43,18.62-4.95-.09-32.41-1.04-53.57-23.62-19.03-20.31-20.07-44.37-20.16-50.11-.02-4.96.39-30.85,21.16-51.89,21.2-21.48,47.78-21.85,52.57-21.83Z" />
    </symbol>
    <symbol viewbox="0 0 4096 4096" id="window">
        <path
            d="M1701.5,2288.25c-4.48.03-31.47.65-51.6,22.83-17.29,19.05-18.01,41.33-18.03,46.81h34.82c-.01-2.57.2-14.11,9.22-23.81,10.09-10.85,23.4-11.02,25.6-11.01v-34.82Z" />
        <rect x="1701.5" y="2288.25" width="679.94" height="34.82" />
        <path
            d="M2381.44,2323.06c2.23,0,15.4.25,25.46,11.01,9.05,9.68,9.35,21.21,9.35,23.81h34.82c.08-4.63.04-28.93-19.17-48.81-20.21-20.91-46.14-20.9-50.46-20.83v34.82Z" />
        <rect x="1666.69" y="2427.54" width="749.57" height="34.83" />
        <rect x="1631.87" y="2357.88" width="34.82" height="667.65" />
        <polygon points="1666.69 3025.53 1666.69 2990.78 2451.08 2990.78 2451.07 3025.53 1666.69 3025.53" />
        <rect x="2416.26" y="2357.88" width="34.82" height="632.9" />
    </symbol>
    <symbol viewbox="0 0 4096 4096" id="console">
        <polygon
            points="1771.13 2703.99 1932.93 2642.55 1949.31 2673.27 1805.95 2726.52 1949.31 2779.77 1932.93 2810.49 1771.13 2749.05 1771.13 2703.99" />
        <polygon points="1969.79 2888.31 2078.33 2564.73 2113.15 2564.73 2004.61 2888.31 1969.79 2888.31" />
        <polygon
            points="2133.63 2673.27 2276.99 2726.52 2133.63 2779.77 2150.01 2810.49 2311.81 2749.05 2311.81 2703.99 2150.01 2642.55 2133.63 2673.27" />
    </symbol>
    <symbol viewbox="0 0 4096 4096" id="text">
        <use xlink:href="#text-left"></use>
        <use xlink:href="#text-right"></use>
    </symbol>
    <symbol viewbox="0 0 4096 4096" id="text-left">
        <use xlink:href="#text-left-a1"></use>
        <use xlink:href="#text-left-y"></use>
        <use xlink:href="#text-left-a2"></use>
        <use xlink:href="#text-left-e"></use>
        <use xlink:href="#text-left-x"></use>
    </symbol>
    <symbol id="text-left-a1">
        <polygon
            points="975.06 1415.79 975.06 1469.07 923.14 1625.07 909.7 1663.47 879.46 1748.43 830.98 1748.43 954.9 1415.79 975.06 1415.79" />
        <polygon
            points="995.06 1415.79 1017.62 1415.79 1141.54 1748.43 1090.66 1748.43 1060.42 1663.47 1046.98 1625.07 995.06 1469.07 995.06 1415.79" />
        <polygon points="923.14 1625.07 1046.98 1625.07 1060.42 1663.47 909.7 1663.47 923.14 1625.07" />
    </symbol>
    <symbol id="text-left-y">
        <path
            d="M1143.77,1708.07s34.8-3.19,48.72-9.6c13.92-6.4,25.52-15.43,34.8-27.12,9.29-11.68,16.25-25.68,20.88-42,4.64-16.32,6.96-27.4,6.96-47.24s-2.64-30.96-7.92-47.44c-5.28-16.48-12.88-30.48-22.8-42-9.92-11.52-21.92-20.32-36-26.4-14.08-6.08-47.52-9.12-47.52-9.12l4.8-40.8s42.24,3.84,61.44,11.52c19.2,7.68,36,18.88,50.4,33.6,14.4,14.72,25.84,32.88,34.32,54.48,8.48,21.6,12.72,38.32,12.72,66.16s-3.76,45.56-11.28,67.16c-7.51,21.6-18.16,39.77-31.92,54.48-13.75,14.72-30.24,25.92-49.44,33.6-19.2,7.68-63.84,11.52-63.84,11.52l-4.32-40.8Z" />
        <path
            d="M1254.94,1582.44s4.24-44.56,12.72-66.16c8.48-21.6,19.92-39.76,34.32-54.48,14.4-14.71,31.2-25.92,50.4-33.6,19.2-7.68,61.44-11.52,61.44-11.52l4.8,40.8s-33.44,3.04-47.52,9.12c-14.08,6.08-26.08,14.88-36,26.4-9.92,11.52-17.52,25.52-22.8,42-5.28,16.48-7.92,47.44-7.92,47.44h-49.44Z" />
    </symbol>
    <symbol id="text-left-a2">
        <polygon points="1354.5 1708.64 1282.69 1708.64 1282.69 1748.48 1338.34 1748.77 1354.5 1708.64" />
        <polygon points="1416.53 1554.56 1344.97 1554.56 1344.97 1593.44 1400.87 1593.44 1416.53 1554.56" />
        <polygon points="1472.26 1416.13 1424.69 1416.13 1424.69 1455.68 1456.34 1455.68 1472.26 1416.13" />
        <polygon
            points="1492.42 1469.41 1430.5 1625.41 1513.29 1625.45 1521.29 1663.44 1417.06 1663.81 1386.82 1748.77 1338.34 1748.77 1472.26 1416.13 1492.42 1416.13 1492.42 1469.41" />
        <polyline points="1501.29 1469.41 1501.29 1416.13 1523.29 1416.13 1616.9 1748.77 1566.02 1748.77" />
        <polygon points="1490.27 1708.7 1648.31 1708.7 1648.31 1748.54 1490.27 1748.82 1490.27 1708.7" />
    </symbol>
    <symbol id="text-left-e">
        <polygon points="1703.45 1415.71 1749.45 1748.35 1795.94 1748.35 1749.94 1415.71 1703.45 1415.71" />
        <polygon points="1795.94 1748.35 1891.72 1748.03 1886.72 1708.51 1790.43 1708.51 1795.94 1748.35" />
        <polygon points="1774.47 1593.14 1869.72 1593.31 1864.72 1554.43 1769.12 1554.43 1774.47 1593.14" />
        <polygon points="1749.94 1415.71 1845.72 1415.71 1851.72 1456.03 1755.45 1455.55 1749.94 1415.71" />
        <path
            d="M1722.77,1555.4l5.22,38.74c-3.81.74-25.86,4.39-38.7,25.3-8.76,14.27-8.52,28.45-8.15,33.9.16,6.55,1.45,17.4,8.15,28.1,16.89,26.98,51.91,27.11,54.66,27.07,1.84,13.28,3.67,26.56,5.51,39.84-7.86-.17-68.73-2.42-99.17-47.91-4.36-6.52-15.35-23.42-16.11-47.58-.87-27.77,12.32-47.48,17.11-54.42,24.06-34.88,63.24-41.78,71.48-43.05Z" />
    </symbol>
    <symbol id="text-left-x">
        <polygon
            points="1905.18 1416.13 2011.74 1582.09 1900.86 1748.77 1952.22 1748.77 2041.5 1615.69 2041.02 1548.97 1958.94 1416.13 1905.18 1416.13" />
    </symbol>
    <symbol viewBox="0 0 4096 4096" id="text-right">
        <use xlink:href="#text-left" transform="rotate(180, 2040, 1580)"></use>
    </symbol>
</svg>
